# File created by Blade
# Date/Time:  Wed Jan 21 18:34:41 2015
# Frame Rate: 120.000 fps
#------------------------------------------------------
:FULLY-SPECIFIED
:DEGREES
1587
root 2.571070 32.770311 -6.986635 42.498535 4.056736 1.586748
RightUpLeg -36.780149 -18.943627 8.980975
RightLeg -3.896544 -0.000000 0.000000
RightFoot -7.962270 -0.935501 22.701966
RightToeBase 21.725117 -0.000000 -0.000000
LeftUpLeg -38.722228 10.997721 -3.889171
LeftLeg 0.210118 -0.000000 -0.000000
LeftFoot -2.358408 -8.481834 -15.239335
LeftToeBase 3.348085 -0.000000 -0.000000
Spine -47.982388 0.357077 -2.999876
RightShoulder -26.322780 33.444609 -68.148757
RightArm 23.640398 -8.878662 18.039443
RightForeArm 6.167807 -0.000000 -1.794416
RightHand 8.230612 -0.000000 3.724035
RightHandThumb1 -24.326973 -0.000000 -32.862282
LeftShoulder -15.157506 -15.045929 52.646983
LeftArm 33.464319 -19.238174 -11.463639
LeftForeArm 23.512893 0.000000 -1.093372
LeftHand -23.729253 -0.000000 -3.070767
LeftHandThumb1 -26.253704 0.000000 33.147579
Head 4.143647 -3.176401 6.186118
1588
root 2.573584 32.771654 -6.992437 42.483556 4.032686 1.580833
RightUpLeg -36.778739 -18.926826 8.963673
RightLeg -3.895291 -0.000000 0.000000
RightFoot -7.918610 -0.911761 22.792172
RightToeBase 21.653133 -0.000000 -0.000000
LeftUpLeg -38.719168 11.003651 -3.892928
LeftLeg 0.221741 -0.000000 -0.000000
LeftFoot -2.368898 -8.473332 -15.235146
LeftToeBase 3.360660 -0.000000 -0.000000
Spine -47.932231 0.402898 -3.010738
RightShoulder -26.088952 33.218652 -67.722969
RightArm 22.705159 -9.048385 18.538066
RightForeArm 6.074258 -0.000000 -1.901168
RightHand 8.093516 -0.000000 4.006916
RightHandThumb1 -24.326973 -0.000000 -32.862282
LeftShoulder -15.012400 -14.823007 52.344674
LeftArm 32.731364 -18.927067 -12.063616
LeftForeArm 23.624612 -0.000000 -1.159572
LeftHand -23.660922 -0.000000 -3.392139
LeftHandThumb1 -26.253704 0.000000 33.147579
Head 4.000501 -3.106152 6.172446
1589
root 2.576509 32.773573 -6.998402 42.453834 4.010431 1.579452
RightUpLeg -36.759282 -18.898298 8.926461
RightLeg -3.885411 -0.000000 0.000000
RightFoot -7.934825 -0.977959 22.709205
RightToeBase 21.733683 -0.000000 -0.000000
LeftUpLeg -38.700761 10.994873 -3.888018
LeftLeg 0.234839 -0.000000 -0.000000
LeftFoot -2.367066 -8.437411 -15.225104
LeftToeBase 3.345595 -0.000000 -0.000000
Spine -47.870502 0.440222 -3.030612
RightShoulder -25.903053 33.193220 -67.461915
RightArm 21.611637 -9.529255 19.117947
RightForeArm 6.115293 -0.000000 -1.997277
RightHand 8.111266 -0.000000 4.045300
RightHandThumb1 -24.326973 -0.000000 -32.862282
LeftShoulder -14.886654 -14.532436 52.078132
LeftArm 32.053798 -18.694127 -12.782746
LeftForeArm 23.656112 -0.000000 -1.259935
LeftHand -23.684696 -0.000000 -3.514594
LeftHandThumb1 -26.253704 0.000000 33.147579
Head 3.860333 -3.100274 6.171639
1590
root 2.578765 32.774998 -7.004856 42.432508 3.995522 1.578334
RightUpLeg -36.757748 -18.901623 8.918403
RightLeg -3.874558 -0.000000 0.000000
RightFoot -7.918747 -0.963549 22.684240
RightToeBase 21.733858 -0.000000 -0.000000
LeftUpLeg -38.697012 10.988176 -3.883915
LeftLeg 0.253150 -0.000000 -0.000000
LeftFoot -2.367930 -8.423003 -15.239510
LeftToeBase 3.379499 -0.000000 -0.000000
Spine -47.821063 0.474765 -3.042900
RightShoulder -25.660165 33.051306 -67.068004
RightArm 20.624776 -9.838310 19.644969
RightForeArm 6.173989 0.000000 -2.151834
RightHand 8.060652 0.000000 4.219142
RightHandThumb1 -24.326973 -0.000000 -32.862282
LeftShoulder -14.719352 -14.170458 51.764833
LeftArm 31.347538 -18.654464 -13.550772
LeftForeArm 23.849607 0.000000 -1.296565
LeftHand -23.632970 -0.000000 -3.762736
LeftHandThumb1 -26.253704 0.000000 33.147579
Head 3.734358 -3.103133 6.152131
1591
root 2.581380 32.776783 -7.011933 42.414806 3.967922 1.580013
RightUpLeg -36.752811 -18.883263 8.892092
RightLeg -3.876731 -0.000000 0.000000
RightFoot -7.897206 -0.981146 22.679442
RightToeBase 21.737071 -0.000000 -0.000000
LeftUpLeg -38.693185 10.985172 -3.893043
LeftLeg 0.265736 -0.000000 -0.000000
LeftFoot -2.358125 -8.396475 -15.221548
LeftToeBase 3.348195 -0.000000 -0.000000
Spine -47.768906 0.515752 -3.068428
RightShoulder -25.449004 32.826662 -66.651724
RightArm 19.683313 -10.077350 20.191122
RightForeArm 6.282456 0.000000 -2.257133
RightHand 7.981977 -0.000000 4.592163
RightHandThumb1 -24.326973 -0.000000 -32.862282
LeftShoulder -14.541351 -13.809184 51.451737
LeftArm 30.634810 -18.457868 -14.236724
LeftForeArm 23.778999 -0.000000 -1.437796
LeftHand -23.518282 0.000000 -3.789659
LeftHandThumb1 -26.253704 0.000000 33.147579
Head 3.609153 -3.080748 6.148394
1592
root 2.583763 32.779107 -7.019613 42.393941 3.946917 1.581971
RightUpLeg -36.758227 -18.874671 8.873621
RightLeg -3.855333 -0.000000 0.000000
RightFoot -7.883132 -0.990766 22.693309
RightToeBase 21.728476 -0.000000 -0.000000
LeftUpLeg -38.692087 10.968490 -3.888464
LeftLeg 0.291673 -0.000000 -0.000000
LeftFoot -2.358362 -8.359228 -15.227525
LeftToeBase 3.366456 -0.000000 -0.000000
Spine -47.710943 0.555675 -3.092944
RightShoulder -25.292151 32.761693 -66.365456
RightArm 18.588811 -10.271221 20.910294
RightForeArm 6.277200 -0.000000 -2.278117
RightHand 7.569507 0.000000 4.538575
RightHandThumb1 -24.326973 -0.000000 -32.862282
LeftShoulder -14.405675 -13.564151 51.210008
LeftArm 29.926085 -18.188018 -15.000734
LeftForeArm 23.622910 -0.000000 -1.588215
LeftHand -23.302752 -0.000000 -4.030540
LeftHandThumb1 -26.253704 0.000000 33.147579
Head 3.472705 -3.100133 6.127435
1593
root 2.586754 32.780630 -7.026738 42.390441 3.934041 1.582976
RightUpLeg -36.784331 -18.895347 8.887863
RightLeg -3.844525 -0.000000 0.000000
RightFoot -7.854314 -0.965628 22.674847
RightToeBase 21.748896 -0.000000 -0.000000
LeftUpLeg -38.709267 10.950282 -3.887007
LeftLeg 0.315783 -0.000000 -0.000000
LeftFoot -2.361163 -8.329424 -15.208578
LeftToeBase 3.349220 -0.000000 -0.000000
Spine -47.660723 0.585347 -3.109000
RightShoulder -24.959967 32.135026 -65.695681
RightArm 17.753231 -9.914992 21.468984
RightForeArm 6.372570 -0.000000 -2.296611
RightHand 7.827619 -0.000000 4.658577
RightHandThumb1 -24.326973 -0.000000 -32.862282
LeftShoulder -14.262052 -12.719321 50.734154
LeftArm 29.482550 -18.667093 -15.814141
LeftForeArm 23.536318 0.000000 -1.749596
LeftHand -23.184785 -0.000000 -4.177141
LeftHandThumb1 -26.253704 0.000000 33.147579
Head 3.302043 -3.097204 6.126265
1594
root 2.588967 32.781877 -7.035359 42.394931 3.916916 1.585207
RightUpLeg -36.815408 -18.889367 8.884850
RightLeg -3.828434 -0.000000 0.000000
RightFoot -7.850854 -0.965780 22.653668
RightToeBase 21.763052 -0.000000 -0.000000
LeftUpLeg -38.737577 10.931787 -3.886668
LeftLeg 0.344071 -0.000000 -0.000000
LeftFoot -2.367525 -8.298487 -15.201278
LeftToeBase 3.348486 -0.000000 -0.000000
Spine -47.603520 0.622514 -3.124684
RightShoulder -24.694916 31.558148 -65.109529
RightArm 16.923124 -9.669728 22.064528
RightForeArm 6.510254 0.000000 -2.350671
RightHand 8.022774 -0.000000 4.659368
RightHandThumb1 -24.326973 -0.000000 -32.862282
LeftShoulder -14.149233 -12.079104 50.348637
LeftArm 28.955032 -19.056628 -16.735324
LeftForeArm 23.783967 -0.000000 -1.750274
LeftHand -23.271765 -0.000000 -4.607169
LeftHandThumb1 -26.253704 0.000000 33.147579
Head 3.074809 -3.081172 6.088275
1595
root 2.589853 32.783734 -7.044347 42.394826 3.900537 1.575365
RightUpLeg -36.847556 -18.890387 8.904572
RightLeg -3.812998 -0.000000 0.000000
RightFoot -7.827023 -0.959923 22.626851
RightToeBase 21.772685 -0.000000 -0.000000
LeftUpLeg -38.762414 10.926444 -3.879074
LeftLeg 0.367442 -0.000000 -0.000000
LeftFoot -2.369934 -8.270875 -15.191700
LeftToeBase 3.304775 -0.000000 -0.000000
Spine -47.538331 0.668705 -3.132667
RightShoulder -24.559104 31.233231 -64.723777
RightArm 15.985751 -9.747818 22.742950
RightForeArm 6.590925 -0.000000 -2.329118
RightHand 7.976948 -0.000000 4.797495
RightHandThumb1 -24.326973 -0.000000 -32.862282
LeftShoulder -14.066353 -11.660641 50.026862
LeftArm 28.395323 -18.890853 -17.495114
LeftForeArm 23.705850 -0.000000 -1.963107
LeftHand -23.245479 -0.000000 -4.767322
LeftHandThumb1 -26.253704 0.000000 33.147579
Head 2.879545 -3.049429 6.074252
1596
root 2.591584 32.785439 -7.053481 42.396501 3.882898 1.565535
RightUpLeg -36.883635 -18.887148 8.916903
RightLeg -3.789238 -0.000000 0.000000
RightFoot -7.798465 -0.944499 22.621504
RightToeBase 21.752052 -0.000000 -0.000000
LeftUpLeg -38.791347 10.920116 -3.871716
LeftLeg 0.398413 -0.000000 -0.000000
LeftFoot -2.384130 -8.251431 -15.211475
LeftToeBase 3.360051 -0.000000 -0.000000
Spine -47.475250 0.707172 -3.140873
RightShoulder -24.412095 30.993518 -64.350192
RightArm 15.002491 -9.884689 23.423369
RightForeArm 6.539353 -0.000000 -2.360207
RightHand 8.039030 -0.000000 4.894428
RightHandThumb1 -24.326973 -0.000000 -32.862282
LeftShoulder -13.983962 -11.280038 49.722211
LeftArm 27.817326 -18.712726 -18.274211
LeftForeArm 23.599213 -0.000000 -2.146121
LeftHand -23.221223 -0.000000 -4.909203
LeftHandThumb1 -26.253704 0.000000 33.147579
Head 2.633493 -3.012986 6.080175
1597
root 2.594529 32.786957 -7.064135 42.405409 3.863984 1.569142
RightUpLeg -36.926401 -18.896793 8.927737
RightLeg -3.780430 -0.000000 0.000000
RightFoot -7.775356 -0.934465 22.590875
RightToeBase 21.778057 -0.000000 -0.000000
LeftUpLeg -38.828613 10.905675 -3.881925
LeftLeg 0.425079 -0.000000 -0.000000
LeftFoot -2.379147 -8.221444 -15.201711
LeftToeBase 3.358716 -0.000000 -0.000000
Spine -47.420357 0.735974 -3.145691
RightShoulder -24.227684 30.599604 -63.845650
RightArm 14.189961 -9.831879 24.051484
RightForeArm 6.757737 -0.000000 -2.427659
RightHand 8.080799 -0.000000 5.178201
RightHandThumb1 -24.326973 -0.000000 -32.862282
LeftShoulder -13.904450 -11.022613 49.450062
LeftArm 27.170371 -18.581979 -19.145248
LeftForeArm 23.659278 -0.000000 -2.223720
LeftHand -23.264075 -0.000000 -4.911742
LeftHandThumb1 -26.253704 0.000000 33.147579
Head 2.406956 -2.939637 6.071809
1598
root 2.596597 32.787950 -7.074064 42.418307 3.848805 1.558122
RightUpLeg -36.969066 -18.888860 8.945958
RightLeg -3.771554 -0.000000 0.000000
RightFoot -7.749785 -0.933636 22.592108
RightToeBase 21.736256 -0.000000 -0.000000
LeftUpLeg -38.865914 10.900602 -3.876664
LeftLeg 0.443775 -0.000000 -0.000000
LeftFoot -2.382140 -8.209631 -15.208240
LeftToeBase 3.374139 -0.000000 -0.000000
Spine -47.364598 0.783612 -3.158491
RightShoulder -24.114528 30.308463 -63.369899
RightArm 13.402983 -9.866087 24.606234
RightForeArm 6.480756 -0.000000 -2.548253
RightHand 7.960657 -0.000000 5.569390
RightHandThumb1 -24.326973 -0.000000 -32.862282
LeftShoulder -13.822694 -10.727140 49.143756
LeftArm 26.568988 -18.478110 -19.958038
LeftForeArm 23.629271 -0.000000 -2.361343
LeftHand -23.096926 0.000000 -5.263621
LeftHandThumb1 -26.253704 0.000000 33.147579
Head 2.203038 -2.901040 6.061182
1599
root 2.599134 32.789874 -7.084837 42.418945 3.833298 1.550936
RightUpLeg -37.002144 -18.882548 8.951084
RightLeg -3.752805 -0.000000 0.000000
RightFoot -7.726107 -0.931005 22.567546
RightToeBase 21.773040 -0.000000 -0.000000
LeftUpLeg -38.891044 10.895743 -3.879555
LeftLeg 0.460625 -0.000000 -0.000000
LeftFoot -2.387975 -8.171882 -15.171309
LeftToeBase 3.363812 -0.000000 -0.000000
Spine -47.295338 0.816320 -3.156000
RightShoulder -23.994335 30.024027 -62.900589
RightArm 12.623950 -10.016129 25.200056
RightForeArm 6.359206 -0.000000 -2.737562
RightHand 8.217812 -0.000000 5.481312
RightHandThumb1 -24.326973 -0.000000 -32.862282
LeftShoulder -13.754485 -10.481781 48.852396
LeftArm 25.958231 -18.319048 -20.782923
LeftForeArm 23.674314 -0.000000 -2.509542
LeftHand -23.080079 -0.000000 -5.526297
LeftHandThumb1 -26.253704 0.000000 33.147579
Head 1.983165 -2.816663 6.045692
